<svg width="563" height="178" viewBox="0 0 563 178" fill="none" xmlns="http://www.w3.org/2000/svg">
<path d="M98.9486 173V145.364H105.628V156.456H116.518V145.364H123.184V173H116.518V161.894H105.628V173H98.9486ZM127.374 173V152.273H133.973V173H127.374ZM130.68 149.857C129.754 149.857 128.958 149.551 128.292 148.94C127.626 148.319 127.293 147.572 127.293 146.7C127.293 145.836 127.626 145.098 128.292 144.487C128.958 143.866 129.754 143.555 130.68 143.555C131.616 143.555 132.412 143.866 133.069 144.487C133.735 145.098 134.068 145.836 134.068 146.7C134.068 147.572 133.735 148.319 133.069 148.94C132.412 149.551 131.616 149.857 130.68 149.857ZM149.873 152.273V157.131H136.797V152.273H149.873ZM139.536 147.307H146.135V166.482C146.135 166.887 146.198 167.215 146.324 167.467C146.459 167.71 146.652 167.886 146.904 167.994C147.156 168.093 147.457 168.142 147.808 168.142C148.06 168.142 148.325 168.12 148.604 168.075C148.892 168.021 149.108 167.976 149.252 167.94L150.251 172.703C149.936 172.793 149.49 172.906 148.915 173.04C148.348 173.175 147.669 173.261 146.877 173.297C145.33 173.369 144.003 173.189 142.896 172.757C141.799 172.316 140.957 171.633 140.373 170.706C139.797 169.779 139.518 168.614 139.536 167.211V147.307ZM159.083 173.351C157.76 173.351 156.586 173.13 155.561 172.69C154.544 172.24 153.739 171.565 153.145 170.665C152.56 169.757 152.268 168.619 152.268 167.251C152.268 166.1 152.47 165.128 152.875 164.337C153.28 163.545 153.838 162.902 154.549 162.407C155.259 161.912 156.078 161.539 157.004 161.287C157.931 161.026 158.921 160.851 159.973 160.761C161.152 160.653 162.101 160.54 162.821 160.423C163.54 160.297 164.062 160.122 164.386 159.897C164.719 159.663 164.885 159.335 164.885 158.912V158.844C164.885 158.152 164.647 157.616 164.17 157.239C163.693 156.861 163.05 156.672 162.24 156.672C161.368 156.672 160.666 156.861 160.135 157.239C159.604 157.616 159.267 158.138 159.123 158.804L153.037 158.588C153.217 157.329 153.68 156.204 154.427 155.214C155.183 154.216 156.217 153.433 157.531 152.866C158.853 152.291 160.441 152.003 162.294 152.003C163.617 152.003 164.836 152.16 165.951 152.475C167.067 152.781 168.038 153.231 168.866 153.825C169.694 154.409 170.332 155.129 170.782 155.984C171.241 156.838 171.47 157.814 171.47 158.912V173H165.263V170.112H165.101C164.732 170.814 164.26 171.408 163.684 171.893C163.117 172.379 162.447 172.744 161.674 172.987C160.909 173.229 160.045 173.351 159.083 173.351ZM161.12 169.033C161.831 169.033 162.47 168.889 163.036 168.601C163.612 168.313 164.071 167.917 164.413 167.413C164.755 166.901 164.926 166.307 164.926 165.632V163.662C164.737 163.761 164.507 163.851 164.237 163.932C163.977 164.013 163.689 164.089 163.374 164.161C163.059 164.233 162.735 164.296 162.402 164.35C162.069 164.404 161.75 164.454 161.444 164.499C160.823 164.598 160.293 164.75 159.852 164.957C159.42 165.164 159.087 165.434 158.853 165.767C158.628 166.091 158.516 166.478 158.516 166.928C158.516 167.611 158.759 168.133 159.245 168.493C159.739 168.853 160.365 169.033 161.12 169.033ZM185.181 173.391C182.995 173.391 181.119 172.942 179.553 172.042C177.997 171.142 176.801 169.892 175.964 168.29C175.127 166.68 174.709 164.818 174.709 162.704C174.709 160.581 175.127 158.719 175.964 157.117C176.81 155.507 178.011 154.252 179.567 153.352C181.132 152.453 182.999 152.003 185.167 152.003C187.083 152.003 188.752 152.349 190.174 153.042C191.604 153.735 192.719 154.715 193.52 155.984C194.33 157.243 194.757 158.723 194.802 160.423H188.635C188.509 159.362 188.149 158.53 187.556 157.927C186.971 157.324 186.206 157.023 185.262 157.023C184.497 157.023 183.827 157.239 183.251 157.67C182.675 158.093 182.225 158.723 181.902 159.56C181.587 160.387 181.429 161.413 181.429 162.636C181.429 163.86 181.587 164.894 181.902 165.74C182.225 166.577 182.675 167.211 183.251 167.643C183.827 168.066 184.497 168.277 185.262 168.277C185.873 168.277 186.413 168.147 186.881 167.886C187.358 167.625 187.749 167.242 188.055 166.739C188.361 166.226 188.554 165.605 188.635 164.876H194.802C194.739 166.586 194.312 168.079 193.52 169.357C192.737 170.634 191.635 171.628 190.214 172.339C188.802 173.04 187.124 173.391 185.181 173.391ZM204.778 161.179V173H198.179V145.364H204.562V156.078H204.791C205.259 154.801 206.024 153.802 207.085 153.082C208.156 152.363 209.465 152.003 211.012 152.003C212.47 152.003 213.738 152.327 214.818 152.974C215.897 153.613 216.734 154.517 217.327 155.687C217.93 156.856 218.227 158.224 218.218 159.789V173H211.619V161.085C211.628 159.933 211.34 159.033 210.756 158.386C210.171 157.738 209.348 157.414 208.286 157.414C207.594 157.414 206.982 157.567 206.451 157.873C205.929 158.17 205.52 158.597 205.223 159.155C204.935 159.713 204.787 160.387 204.778 161.179ZM222.337 173V152.273H228.936V173H222.337ZM225.643 149.857C224.717 149.857 223.921 149.551 223.255 148.94C222.589 148.319 222.256 147.572 222.256 146.7C222.256 145.836 222.589 145.098 223.255 144.487C223.921 143.866 224.717 143.555 225.643 143.555C226.579 143.555 227.375 143.866 228.032 144.487C228.698 145.098 229.03 145.836 229.03 146.7C229.03 147.572 228.698 148.319 228.032 148.94C227.375 149.551 226.579 149.857 225.643 149.857ZM247.575 145.364L253.755 165.605H253.985L260.165 145.364H267.641L258.316 173H249.424L240.099 145.364H247.575ZM274.047 173.351C272.725 173.351 271.551 173.13 270.525 172.69C269.509 172.24 268.704 171.565 268.11 170.665C267.525 169.757 267.233 168.619 267.233 167.251C267.233 166.1 267.435 165.128 267.84 164.337C268.245 163.545 268.803 162.902 269.513 162.407C270.224 161.912 271.043 161.539 271.969 161.287C272.896 161.026 273.886 160.851 274.938 160.761C276.117 160.653 277.066 160.54 277.785 160.423C278.505 160.297 279.027 160.122 279.351 159.897C279.684 159.663 279.85 159.335 279.85 158.912V158.844C279.85 158.152 279.612 157.616 279.135 157.239C278.658 156.861 278.015 156.672 277.205 156.672C276.332 156.672 275.631 156.861 275.1 157.239C274.569 157.616 274.232 158.138 274.088 158.804L268.002 158.588C268.182 157.329 268.645 156.204 269.392 155.214C270.148 154.216 271.182 153.433 272.496 152.866C273.818 152.291 275.406 152.003 277.259 152.003C278.582 152.003 279.801 152.16 280.916 152.475C282.032 152.781 283.003 153.231 283.831 153.825C284.658 154.409 285.297 155.129 285.747 155.984C286.206 156.838 286.435 157.814 286.435 158.912V173H280.228V170.112H280.066C279.697 170.814 279.225 171.408 278.649 171.893C278.082 172.379 277.412 172.744 276.638 172.987C275.874 173.229 275.01 173.351 274.047 173.351ZM276.085 169.033C276.796 169.033 277.435 168.889 278.001 168.601C278.577 168.313 279.036 167.917 279.378 167.413C279.72 166.901 279.89 166.307 279.89 165.632V163.662C279.702 163.761 279.472 163.851 279.202 163.932C278.941 164.013 278.654 164.089 278.339 164.161C278.024 164.233 277.7 164.296 277.367 164.35C277.034 164.404 276.715 164.454 276.409 164.499C275.788 164.598 275.257 164.75 274.817 164.957C274.385 165.164 274.052 165.434 273.818 165.767C273.593 166.091 273.481 166.478 273.481 166.928C273.481 167.611 273.724 168.133 274.209 168.493C274.704 168.853 275.329 169.033 276.085 169.033ZM297.069 161.179V173H290.47V152.273H296.745V156.078H296.974C297.433 154.81 298.216 153.816 299.322 153.096C300.429 152.367 301.747 152.003 303.276 152.003C304.734 152.003 305.997 152.331 307.068 152.988C308.148 153.636 308.984 154.544 309.578 155.714C310.181 156.874 310.478 158.233 310.469 159.789V173H303.87V161.085C303.879 159.933 303.587 159.033 302.993 158.386C302.408 157.738 301.594 157.414 300.55 157.414C299.858 157.414 299.246 157.567 298.715 157.873C298.193 158.17 297.788 158.597 297.501 159.155C297.222 159.713 297.078 160.387 297.069 161.179ZM326.254 152.273V157.131H313.178V152.273H326.254ZM315.917 147.307H322.516V166.482C322.516 166.887 322.579 167.215 322.705 167.467C322.84 167.71 323.033 167.886 323.285 167.994C323.537 168.093 323.838 168.142 324.189 168.142C324.441 168.142 324.706 168.12 324.985 168.075C325.273 168.021 325.489 167.976 325.633 167.94L326.631 172.703C326.317 172.793 325.871 172.906 325.295 173.04C324.729 173.175 324.05 173.261 323.258 173.297C321.711 173.369 320.384 173.189 319.277 172.757C318.179 172.316 317.338 171.633 316.754 170.706C316.178 169.779 315.899 168.614 315.917 167.211V147.307ZM335.463 173.351C334.141 173.351 332.967 173.13 331.941 172.69C330.925 172.24 330.12 171.565 329.526 170.665C328.941 169.757 328.649 168.619 328.649 167.251C328.649 166.1 328.851 165.128 329.256 164.337C329.661 163.545 330.219 162.902 330.929 162.407C331.64 161.912 332.459 161.539 333.385 161.287C334.312 161.026 335.302 160.851 336.354 160.761C337.533 160.653 338.482 160.54 339.201 160.423C339.921 160.297 340.443 160.122 340.767 159.897C341.1 159.663 341.266 159.335 341.266 158.912V158.844C341.266 158.152 341.028 157.616 340.551 157.239C340.074 156.861 339.431 156.672 338.621 156.672C337.749 156.672 337.047 156.861 336.516 157.239C335.985 157.616 335.648 158.138 335.504 158.804L329.418 158.588C329.598 157.329 330.061 156.204 330.808 155.214C331.564 154.216 332.598 153.433 333.912 152.866C335.234 152.291 336.822 152.003 338.675 152.003C339.998 152.003 341.217 152.16 342.332 152.475C343.448 152.781 344.419 153.231 345.247 153.825C346.075 154.409 346.713 155.129 347.163 155.984C347.622 156.838 347.851 157.814 347.851 158.912V173H341.644V170.112H341.482C341.113 170.814 340.641 171.408 340.065 171.893C339.498 172.379 338.828 172.744 338.054 172.987C337.29 173.229 336.426 173.351 335.463 173.351ZM337.501 169.033C338.212 169.033 338.851 168.889 339.417 168.601C339.993 168.313 340.452 167.917 340.794 167.413C341.136 166.901 341.307 166.307 341.307 165.632V163.662C341.118 163.761 340.888 163.851 340.618 163.932C340.357 164.013 340.07 164.089 339.755 164.161C339.44 164.233 339.116 164.296 338.783 164.35C338.45 164.404 338.131 164.454 337.825 164.499C337.204 164.598 336.673 164.75 336.233 164.957C335.801 165.164 335.468 165.434 335.234 165.767C335.009 166.091 334.897 166.478 334.897 166.928C334.897 167.611 335.14 168.133 335.625 168.493C336.12 168.853 336.745 169.033 337.501 169.033ZM351.886 173V152.273H358.296V156.051H358.512C358.89 154.684 359.506 153.667 360.36 153.001C361.215 152.327 362.209 151.989 363.343 151.989C363.649 151.989 363.963 152.012 364.287 152.057C364.611 152.093 364.913 152.151 365.191 152.232V157.967C364.877 157.859 364.463 157.774 363.95 157.711C363.446 157.648 362.996 157.616 362.601 157.616C361.818 157.616 361.112 157.792 360.482 158.143C359.861 158.485 359.371 158.966 359.011 159.587C358.66 160.198 358.485 160.918 358.485 161.746V173H351.886ZM372.944 173.351C371.621 173.351 370.447 173.13 369.422 172.69C368.405 172.24 367.6 171.565 367.006 170.665C366.422 169.757 366.129 168.619 366.129 167.251C366.129 166.1 366.332 165.128 366.737 164.337C367.141 163.545 367.699 162.902 368.41 162.407C369.121 161.912 369.939 161.539 370.866 161.287C371.792 161.026 372.782 160.851 373.835 160.761C375.013 160.653 375.962 160.54 376.682 160.423C377.402 160.297 377.923 160.122 378.247 159.897C378.58 159.663 378.746 159.335 378.746 158.912V158.844C378.746 158.152 378.508 157.616 378.031 157.239C377.554 156.861 376.911 156.672 376.102 156.672C375.229 156.672 374.527 156.861 373.996 157.239C373.466 157.616 373.128 158.138 372.984 158.804L366.898 158.588C367.078 157.329 367.542 156.204 368.288 155.214C369.044 154.216 370.079 153.433 371.392 152.866C372.715 152.291 374.302 152.003 376.156 152.003C377.478 152.003 378.697 152.16 379.813 152.475C380.928 152.781 381.9 153.231 382.727 153.825C383.555 154.409 384.194 155.129 384.644 155.984C385.102 156.838 385.332 157.814 385.332 158.912V173H379.124V170.112H378.962C378.594 170.814 378.121 171.408 377.545 171.893C376.979 172.379 376.309 172.744 375.535 172.987C374.77 173.229 373.907 173.351 372.944 173.351ZM374.982 169.033C375.692 169.033 376.331 168.889 376.898 168.601C377.474 168.313 377.932 167.917 378.274 167.413C378.616 166.901 378.787 166.307 378.787 165.632V163.662C378.598 163.761 378.369 163.851 378.099 163.932C377.838 164.013 377.55 164.089 377.235 164.161C376.92 164.233 376.596 164.296 376.264 164.35C375.931 164.404 375.611 164.454 375.305 164.499C374.685 164.598 374.154 164.75 373.713 164.957C373.281 165.164 372.948 165.434 372.715 165.767C372.49 166.091 372.377 166.478 372.377 166.928C372.377 167.611 372.62 168.133 373.106 168.493C373.601 168.853 374.226 169.033 374.982 169.033Z" fill="#101010"/>
<path d="M170.581 28.7273V116H154.644L116.675 61.071H116.036V116H97.5843V28.7273H113.777L151.448 83.6136H152.215V28.7273H170.581ZM185.826 116V28.7273H244.633V43.9403H204.278V64.7358H241.608V79.9489H204.278V100.787H244.804V116H185.826ZM276.604 28.7273L294.204 58.4716H294.885L312.57 28.7273H333.408L306.775 72.3636L334.005 116H312.783L294.885 86.2131H294.204L276.306 116H255.169L282.485 72.3636L255.681 28.7273H276.604ZM341.76 43.9403V28.7273H413.437V43.9403H386.718V116H368.479V43.9403H341.76Z" fill="black"/>
<rect x="-0.000976562" y="38.4756" width="21.8856" height="21.8856" transform="rotate(-45 -0.000976562 38.4756)" fill="#FF8484"/>
<rect x="15.4746" y="53.9509" width="21.8856" height="21.8856" transform="rotate(-45 15.4746 53.9509)" fill="#FF3B3B"/>
<rect x="15.4746" y="115.853" width="21.8856" height="21.8856" transform="rotate(-135 15.4746 115.853)" fill="#FF8484"/>
<rect x="30.9497" y="100.377" width="21.8856" height="21.8856" transform="rotate(-135 30.9497 100.377)" fill="#FF3B3B"/>
<rect x="30.9497" y="69.4265" width="21.8856" height="21.8856" transform="rotate(-45 30.9497 69.4265)" fill="#C30000"/>
<path d="M498.84 30.7273H509.408V88.5114C509.408 94.4773 508.002 99.804 505.189 104.491C502.405 109.151 498.471 112.83 493.385 115.528C488.3 118.199 482.334 119.534 475.488 119.534C468.641 119.534 462.675 118.199 457.59 115.528C452.505 112.83 448.556 109.151 445.743 104.491C442.959 99.804 441.567 94.4773 441.567 88.5114V30.7273H452.135V87.6591C452.135 91.9205 453.073 95.7131 454.948 99.0369C456.823 102.332 459.493 104.932 462.959 106.835C466.454 108.71 470.63 109.648 475.488 109.648C480.346 109.648 484.522 108.71 488.016 106.835C491.51 104.932 494.181 102.332 496.027 99.0369C497.902 95.7131 498.84 91.9205 498.84 87.6591V30.7273ZM541.081 30.7273V118H530.513V30.7273H541.081Z" fill="black"/>
</svg>
