<svg width="150" height="23" viewBox="0 0 150 23" fill="none" xmlns="http://www.w3.org/2000/svg">
    <path d="M30.7243 13.191L0 0.794434V3.70122L30.7243 16.0978V13.191Z" fill="white" />
    <path d="M15.4898 19.3466L0 13.191V16.0978L15.4898 22.4244V19.3466Z" fill="white" />
    <path d="M30.7243 19.3466L0 6.94999V10.1133L30.7243 22.4244V19.3466Z" fill="white" />
    <path d="M15.4898 3.70122V0.794434L30.7243 6.94999V10.1133L15.4898 3.70122Z" fill="white" />
    <path d="M99.5898 4.46658V0.727295H117.207V4.46658H110.64V22.1785H106.157V4.46658H99.5898Z"
        fill="white" />
    <path
        d="M83.5752 0.727295L87.901 8.03829H88.0686L92.4154 0.727295H97.5373L90.9909 11.4529L97.6839 22.1785H92.4678L88.0686 14.857H87.901L83.5018 22.1785H78.3066L85.0206 11.4529L78.4323 0.727295H83.5752Z"
        fill="white" />
    <path
        d="M61.2627 22.1785V0.727295H75.7171V4.46658H65.798V9.57799H74.9734V13.3173H65.798V18.4392H75.759V22.1785H61.2627Z"
        fill="white" />
    <path
        d="M57.5156 0.727295V22.1785H53.5982L44.2657 8.67721H44.1086V22.1785H39.5732V0.727295H43.5534L52.8126 14.2181H53.0012V0.727295H57.5156Z"
        fill="white" />
    <path d="M150 0.727295V22.1785H148.041V0.727295H150Z" fill="white" />
    <path
        d="M140.39 0.727295H142.349V14.9303C142.349 16.3897 142.007 17.6955 141.322 18.8477C140.638 19.9928 139.685 20.8971 138.463 21.5605C137.248 22.2169 135.834 22.5451 134.221 22.5451C132.615 22.5451 131.201 22.2134 129.979 21.55C128.757 20.8866 127.804 19.9824 127.119 18.8372C126.435 17.692 126.093 16.3897 126.093 14.9303V0.727295H128.051V14.7941C128.051 15.9323 128.306 16.9483 128.816 17.8421C129.326 18.729 130.042 19.4272 130.963 19.937C131.892 20.4467 132.978 20.7016 134.221 20.7016C135.464 20.7016 136.55 20.4467 137.478 19.937C138.407 19.4272 139.123 18.729 139.625 17.8421C140.135 16.9483 140.39 15.9323 140.39 14.7941V0.727295Z"
        fill="white" />
</svg>